<?xml version="1.0" encoding="UTF-8"?>
<svg id="Layer_1" xmlns="http://www.w3.org/2000/svg" version="1.1" viewBox="0 0 144 144">
  <!-- Generator: Adobe Illustrator 30.1.0, SVG Export Plug-In . SVG Version: 2.1.1 Build 136)  -->
  <defs>
    <style>
      .st0 {
        fill: #c7c7c7;
      }
    </style>
  </defs>
  <path class="st0" d="M103.49,68.64c-2.91,2.58-6.6,4-10.51,4-4.24,0-8.23-1.65-11.23-4.65-6.19-6.19-6.19-16.27,0-22.46l1.88-1.88-1.88-1.88c-4.15-4.16-5.51-10.06-4.09-15.36l-5.63-14.31-13.69,34.66-35.6-10.95,18.55,32.3-30.75,21.04,36.85,5.66-2.74,37.09,27.38-25.27,27.32,25.27-2.74-37.09,36.85-5.66-29.97-20.51Z"/>
  <path class="st0" d="M114.4,43.65l8.95-8.95c2.3-2.3,2.3-6.02,0-8.32-2.3-2.3-6.02-2.3-8.32,0l-8.95,8.95-8.95-8.95c-2.3-2.3-6.02-2.3-8.32,0-2.3,2.3-2.3,6.02,0,8.32l8.95,8.95-8.95,8.95c-2.3,2.3-2.3,6.02,0,8.32,2.3,2.3,6.02,2.3,8.32,0l8.95-8.95,8.95,8.95c2.3,2.3,6.02,2.3,8.32,0,2.3-2.3,2.3-6.02,0-8.32l-8.95-8.95Z"/>
</svg>