<?xml version="1.0" encoding="UTF-8"?>
<svg id="Layer_1" xmlns="http://www.w3.org/2000/svg" width="144" height="144" version="1.1" viewBox="0 0 144 144">
  <!-- Generator: Adobe Illustrator 30.0.0, SVG Export Plug-In . SVG Version: 2.1.1 Build 123)  -->
  <defs>
    <style>
      .st0 {
        fill: #c7c7c7;
      }
    </style>
  </defs>
  <path class="st0" d="M52.66,63.86l-9.25,9.25,17.43,17.43h0c2.53,2.53,6.67,2.53,9.25,0l32.66-32.66-9.25-9.25-28.06,28.06-12.79-12.83Z"/>
  <path class="st0" d="M76.35,8.24l-4.37-1.52-4.37,1.52-43.56,15.23-8.69,3.08v52.49c0,9.75,2.85,19.32,8.14,27.51,5.29,8.19,12.83,14.67,21.76,18.68l21.39,9.61,5.38,2.44,5.34-2.44,21.39-9.61h0c8.88-4,16.47-10.49,21.76-18.72,5.29-8.19,8.14-17.76,8.14-27.51V26.5s-8.69-3.08-8.69-3.08l-43.61-15.18ZM115.54,79.04h0c0,7.22-2.12,14.35-6.03,20.42-3.96,6.07-9.52,10.9-16.15,13.89l-21.39,9.61-21.39-9.61c-6.62-2.99-12.24-7.77-16.15-13.89-3.96-6.07-6.03-13.16-6.03-20.42v-43.24s43.56-15.27,43.56-15.27l43.56,15.27v43.24s0,0,0,0Z"/>
</svg>