<?xml version="1.0" encoding="UTF-8"?>
<svg id="Layer_1" xmlns="http://www.w3.org/2000/svg" version="1.1" viewBox="0 0 144 144">
  <!-- Generator: Adobe Illustrator 30.1.0, SVG Export Plug-In . SVG Version: 2.1.1 Build 136)  -->
  <defs>
    <style>
      .st0 {
        fill: #c7c7c7;
      }
    </style>
  </defs>
  <path class="st0" d="M119.97,23.42l-43.61-15.18h-.01l-4.37-1.52-4.37,1.52-43.56,15.23-8.69,3.08v52.49c0,9.75,2.85,19.32,8.14,27.51s12.83,14.67,21.76,18.68l6.85,3.08-4.38-4.38c-3.9-3.9-5.16-9.46-3.78-14.43-3.75-2.71-6.99-6.09-9.51-10.04-3.96-6.07-6.03-13.16-6.03-20.42v-43.24l43.56-15.27,43.56,15.27v43.24h.02c0,7.22-2.12,14.35-6.03,20.42-2.1,3.21-4.65,6.07-7.57,8.49-.73,1.76-1.81,3.37-3.2,4.76l-20.64,20.64c-1.85,1.82-4.06,3.08-6.44,3.76l.37.17,5.34-2.44,21.39-9.61c8.88-4,16.47-10.49,21.76-18.72,5.29-8.19,8.14-17.76,8.14-27.51V26.5l-8.69-3.08Z"/>
  <path class="st0" d="M54.8,110.05h0c-1.88,1.88-1.88,4.92,0,6.8l9.43,9.43h0c1.86,1.86,4.91,1.86,6.81,0l20.64-20.64c1.88-1.88,1.88-4.92,0-6.8h0c-1.88-1.89-4.92-1.89-6.8,0l-17.25,17.25-6.01-6.03c-1.88-1.88-4.93-1.89-6.81,0Z"/>
</svg>