<?xml version="1.0" encoding="UTF-8"?>
<svg id="Layer_1" xmlns="http://www.w3.org/2000/svg" width="144" height="144" version="1.1" viewBox="0 0 144 144">
  <!-- Generator: Adobe Illustrator 30.0.0, SVG Export Plug-In . SVG Version: 2.1.1 Build 123)  -->
  <defs>
    <style>
      .st0 {
        fill: #c7c7c7;
      }
    </style>
  </defs>
  <path class="st0" d="M127.23,114.73H16.77c-2.39,0-4.82,2.39-4.82,4.82v12.5c0,2.39,2.39,4.82,4.82,4.82h110.46c2.86,0,4.82-2.39,4.82-4.82v-12.5c-.04-2.43-1.95-4.82-4.82-4.82h0Z"/>
  <path class="st0" d="M23.97,103.66h96.05v-48.53c0-26.39-21.62-48.01-48.05-48.01S23.97,28.75,23.97,55.14v48.53h0ZM74.89,29.7c-2.39,0-4.34-1.91-4.34-4.34s1.91-4.77,4.34-4.77c17.27,0,31.69,14.41,31.69,31.69,0,2.39-1.91,4.34-4.82,4.34-2.39,0-4.34-1.91-4.34-4.34.04-12.5-10.07-22.57-22.53-22.57Z"/>
</svg>