<?xml version="1.0" encoding="UTF-8"?>
<svg xmlns="http://www.w3.org/2000/svg" width="144" height="144" version="1.1" viewBox="0 0 144 144">
  <defs>
    <style>
      .st0 {
        fill: #c7c7c7;
      }
    </style>
  </defs>
  <path class="st0" d="M0,0h70C75.52,0,80,4.48,80,10h0c0,5.52-4.48,10-10,10H0V0H0Z"/>
  <path class="st0" d="M0,30.97h89.03c5.52,0,10,4.48,10,10h0c0,5.52-4.48,10-10,10H0v-20H0Z"/>
  <path class="st0" d="M0,61.93h119.67c5.52,0,10,4.48,10,10h0c0,5.52-4.48,10-10,10H0v-20H0Z"/>
  <path class="st0" d="M0,92.9h89.03c5.52,0,10,4.48,10,10h0c0,5.52-4.48,10-10,10H0v-20H0Z"/>
  <path class="st0" d="M0,123.86h70c5.52,0,10,4.48,10,10h0c0,5.52-4.48,10-10,10H0v-20H0Z"/>
</svg>