<?xml version="1.0" encoding="UTF-8"?>
<svg xmlns="http://www.w3.org/2000/svg" width="144" height="144" version="1.1" viewBox="0 0 144 144">
  <!-- Generator: Adobe Illustrator 30.0.0, SVG Export Plug-In . SVG Version: 2.1.1 Build 123)  -->
  <defs>
    <style>
      .st0 {
        fill: #c7c7c7;
      }
    </style>
  </defs>
  <path class="st0" d="M72.07,23.35c-1.83-.81-3.84-.6-5.25.38l-31.49,24.23h-5.89c-8.28,0-15.15,6.87-15.15,15.19v20.22c0,8.28,6.87,15.15,15.15,15.15h6.06l31.53,21.8c1.54,1.07,3.58,1.02,5.25.21,1.62-.81,2.65-2.65,2.65-4.44V27.79c0-1.83-1.02-3.63-2.86-4.44h0Z"/>
  <path class="st0" d="M113.72,72l14.51-14.51c1.96-1.96,1.96-5.21,0-7.17h0c-1.96-1.96-5.21-1.96-7.17,0l-14.51,14.51-14.51-14.51c-1.96-1.96-5.21-1.96-7.17,0s-1.96,5.21,0,7.17l14.51,14.51-14.51,14.51c-1.96,1.96-1.96,5.21,0,7.17,1.96,1.96,5.21,1.96,7.17,0l14.51-14.51,14.51,14.51c1.96,1.96,5.21,1.96,7.17,0h0c1.96-1.96,1.96-5.21,0-7.17l-14.51-14.51Z"/>
</svg>