<?xml version="1.0" encoding="UTF-8"?>
<svg xmlns="http://www.w3.org/2000/svg" width="144" height="144" version="1.1" viewBox="0 0 144 144">
  <defs>
    <style>
      .st0, .st1 {
        fill: none;
        stroke: #c7c7c7;
        stroke-miterlimit: 10;
        stroke-width: 3px;
      }

      .st1 {
        stroke-dasharray: 11.01 11.01;
      }

      .st2, .st3 {
        fill: #c7c7c7;
      }

      .st3 {
        opacity: .25;
      }
    </style>
  </defs>
  <rect class="st3" x="22.26" y="21.72" width="71.3" height="11.16"/>
  <rect class="st3" x="22.26" y="44.05" width="78.79" height="11.16"/>
  <g>
    <polyline class="st0" points="21.26 84.62 15.26 84.62 15.26 78.63"/>
    <polyline class="st0" points="15.26 65.46 15.26 59.46 21.26 59.46"/>
    <line class="st1" x1="32.28" y1="59.46" x2="92.84" y2="59.46"/>
    <polyline class="st0" points="98.34 59.46 104.34 59.46 104.34 65.46"/>
    <polyline class="st0" points="104.34 78.63 104.34 84.62 98.34 84.62"/>
    <line class="st1" x1="87.33" y1="84.62" x2="26.77" y2="84.62"/>
  </g>
  <rect class="st2" x="22.26" y="66.47" width="73.99" height="11.16"/>
  <rect class="st3" x="65.87" y="66.42" width="100.57" height="11.16" transform="translate(44.16 188.16) rotate(-90)"/>
  <rect class="st3" x="22.26" y="88.8" width="69.6" height="11.16"/>
  <rect class="st3" x="22.26" y="111.12" width="55.3" height="11.16"/>
  <rect class="st2" x="88.51" y="89.05" width="55.3" height="11.16" rx="5.58" ry="5.58" transform="translate(21.52 210.79) rotate(-90)"/>
</svg>