<?xml version="1.0" encoding="UTF-8"?>
<svg xmlns="http://www.w3.org/2000/svg" width="144" height="144" version="1.1" viewBox="0 0 144 144">
  <defs>
    <style>
      .st0 {
        fill: #c7c7c7;
      }
    </style>
  </defs>
  <path class="st0" d="M53.08,57.51c-2.03,0-3.62-1.8-3.33-3.81.37-2.6,1.47-3.74,4.63-6.21,2.94-2.34,3.65-3.33,3.65-5.18,0-2.88-2.34-4.91-5.61-4.91s-5.12,1.22-5.86,3.68c-.43,1.41-1.65,2.42-3.13,2.42h-.29c-2.28,0-3.95-2.25-3.2-4.41,1.77-5.04,6.38-8.08,12.69-8.08,7.58,0,12.66,4.41,12.66,11.01,0,2.51-.72,4.53-2.19,6.38-1.04,1.2-1.53,1.68-4.41,3.87-1.05.83-1.7,1.67-2,2.81-.39,1.44-1.73,2.42-3.23,2.42h-.39v.03h0Z"/>
  <rect class="st0" x="49.41" y="60.46" width="7.63" height="7.63" rx="3.81" ry="3.81"/>
  <path class="st0" d="M64.26,80.87l-3.56-6.2-8.21,8.21-9.73-9.73h-8.8c-2.74,0-4.96-2.21-4.96-4.96V31.13c0-2.74,2.21-4.96,4.96-4.96h37.06c2.74,0,4.96,2.21,4.96,4.96v36.91l6.89,2.12c0-.09.01-.17.01-.25V29.42c-.01-5.6-4.54-10.12-10.14-10.12h-40.49c-5.59,0-10.12,4.52-10.12,10.12v40.49c0,5.58,4.53,10.12,10.12,10.12h7.67l12.58,12.58,11.75-11.75h0Z"/>
  <polygon class="st0" points="94.72 111.2 80.09 124.7 81.55 104.89 61.87 101.86 78.3 90.62 68.39 73.37 87.4 79.22 94.72 60.7 102 79.22 121.02 73.36 111.11 90.62 127.54 101.86 107.85 104.89 109.32 124.7 94.72 111.2"/>
</svg>