<?xml version="1.0" encoding="UTF-8"?>
<svg xmlns="http://www.w3.org/2000/svg" width="144" height="144" version="1.1" viewBox="0 0 144 144">
  <defs>
    <style>
      .st0 {
        fill: #c7c7c7;
      }
    </style>
  </defs>
  <path class="st0" d="M106.02,22.18v33.16c0,3.1-1.86,5.89-4.65,6.97l-38.43,15.65v-6.97c10.69-2.79,18.6-12.4,18.6-24.02,0-13.64-11.16-24.8-24.8-24.8-13.64,0-24.8,11.16-24.8,24.8,0,11.62,7.9,21.23,18.6,24.02v12.09s-12.4,5.11-12.4,5.11c-7.59,3.1-12.4,10.38-12.4,18.44v15.19s12.4,0,12.4,0v-15.19c0-3.1,1.86-5.89,4.65-6.97l32.54-13.17v35.33s12.4,0,12.4,0v-40.6s18.13-7.44,18.13-7.44c7.59-3.1,12.4-10.38,12.4-18.44V22.18s-12.24,0-12.24,0ZM44.34,46.97c0-6.82,5.58-12.4,12.4-12.4,6.82,0,12.4,5.58,12.4,12.4s-5.58,12.4-12.4,12.4c-6.82,0-12.4-5.58-12.4-12.4Z"/>
</svg>