<?xml version="1.0" encoding="UTF-8"?>
<svg xmlns="http://www.w3.org/2000/svg" width="144" height="144" version="1.1" viewBox="0 0 144 144">
  <!-- Generator: Adobe Illustrator 30.0.0, SVG Export Plug-In . SVG Version: 2.1.1 Build 123)  -->
  <defs>
    <style>
      .st0 {
        fill: #c7c7c7;
      }
    </style>
  </defs>
  <path class="st0" d="M106.82,8.93H37.16c-9.63,0-17.42,7.79-17.42,17.42v69.66c0,9.61,7.79,17.42,17.42,17.42h13.19s21.65,21.65,21.65,21.65l21.65-21.65h13.19c9.61,0,17.42-7.79,17.42-17.42V26.35c-.02-9.63-7.81-17.42-17.44-17.42ZM112.39,93.06c0,4.72-3.81,8.53-8.53,8.53h-11.38s-3.78,0-3.78,0l-16.73,16.73-16.73-16.73h-3.1s-12.04,0-12.04,0c-4.72,0-8.53-3.81-8.53-8.53V29.3c0-4.72,3.81-8.53,8.53-8.53h63.76c4.72,0,8.53,3.81,8.53,8.53v63.76Z"/>
</svg>