<?xml version="1.0" encoding="UTF-8"?>
<svg id="Layer_1" xmlns="http://www.w3.org/2000/svg" width="453.5" height="453.5" version="1.1" viewBox="0 0 453.5 453.5">
  <!-- Generator: Adobe Illustrator 30.0.0, SVG Export Plug-In . SVG Version: 2.1.1 Build 123)  -->
  <defs>
    <style>
      .st0 {
        fill: #c8c8c8;
      }
    </style>
  </defs>
  <path class="st0" d="M370.2,155.9h-43.6c-4.3,0-7.9-3.5-7.9-7.9v-34.3c0-4.3-3.5-7.9-7.9-7.9h-80.5c-4.7,0-8.4,3.8-8.4,8.5l.5,41.6h-8.1c-3.7,0-8.3-4.3-8.3-4.3l-35.2-41.1c-2.4-3.2-5.1-4.8-9.2-4.8-26.3,0-52.7,0-79,0-6,0-7,.9-7,7v174.2c0,4.6,1.6,8.2,5,11.5l106.4,102.1c2.2,2.2,6,3.9,9.1,3.9h36.7c4.2,0,7.9-2.8,9-6.9l2.8-10.1,9.1,13c1.7,2.5,4.6,4,7.7,4h32.4c5.1-.1,9-1.8,12.6-5.5l67.7-72.2c2.7-2.6,3.8-5.4,3.8-9.2v-13.2h0v-140.7c0-4.3-3.4-7.8-7.7-7.8ZM216.7,176.9c-.1,18.5-.1,37,0,55.5,0,3.8-1.5,4.8-5.1,4.8-15.7-.2-31.3,0-47-.3-4.2,0-5.9.9-5.8,5.5.3,10.2,0,10.2,10.4,10.2s28,.1,42,0c4.1-.1,5.5,1.3,5.4,5.5-.2,18-.2,36,0,54,.1,4.6-1.7,5.7-5.9,5.6-26.7,0-53.3.1-80-.2-2.9,0-6.4-1.7-8.6-3.7-8.2-7.5-15.9-15.7-24.1-23.3-3.8-3.6-5.4-7.3-5.4-12.6.4-25.4.3-51,.3-76.7s.1-45.9,0-72.2c0-4.6,1.1-6.5,6.1-6.4,18.1.3,36.3.2,54.5,0,4.3,0,5.7,1.3,5.7,5.7-.3,15.2,0,23.5-.2,38.7-.1,4.1,1.1,5.5,5.4,5.4,15.8-.2,31.7,0,47.5-.2,3.7,0,5,1.1,4.9,4.8ZM361.6,176.9c-.1,18.5-.1,37,0,55.5,0,3.8-1.5,4.8-5.1,4.8-15.7-.2-31.3,0-47-.3-4.2,0-5.9.9-5.8,5.5.3,10.2,0,10.2,10.4,10.2s28,.1,42,0c4.1-.1,5.5,1.3,5.4,5.5-.2,18-.2,36,0,54,.1,4.6-1.7,5.7-5.9,5.6-26.7,0-53.3.1-80-.2-2.9,0-6.4-1.7-8.6-3.7-8.2-7.5-15.9-15.7-24.1-23.3-3.8-3.6-5.4-7.3-5.4-12.6.4-25.4.3-51,.3-76.7s.1-45.9,0-72.2c0-4.6,1.1-6.5,6.1-6.4,18.1.3,36.3.2,54.5,0,4.3,0,5.7,1.3,5.7,5.7-.3,15.2,0,23.5-.2,38.7,0,4.1,1.1,5.5,5.4,5.4,15.8-.2,31.7,0,47.5-.2,3.7,0,5,1.1,4.9,4.8Z"/>
</svg>