<?xml version="1.0" encoding="UTF-8"?>
<svg id="Layer_1" xmlns="http://www.w3.org/2000/svg" width="144" height="144" version="1.1" viewBox="0 0 144 144">
  <!-- Generator: Adobe Illustrator 30.0.0, SVG Export Plug-In . SVG Version: 2.1.1 Build 123)  -->
  <defs>
    <style>
      .st0 {
        fill: #c7c7c7;
      }
    </style>
  </defs>
  <path class="st0" d="M116.3,18.97s-.05.03-.08.03c-20.02,11.21-41.74,17.93-64.6,20.02v41.12c22.83,2.09,44.56,8.8,64.6,20.02.03.03.08.05.16,0,.08-.05.08-.08.08-.14V19.13c0-.05,0-.08-.08-.14-.03-.03-.05-.03-.08-.03h0Z"/>
  <path class="st0" d="M27.38,39.36c-2.03,0-3.66,1.65-3.66,3.66v33.1c0,1.49.89,2.76,2.17,3.33.46.19.6.24,1.25.3h17.99v-40.39h-17.74Z"/>
  <path class="st0" d="M122.99,47.43v24.3c5.66-1.14,9.94-6.15,9.94-12.13s-4.28-11.02-9.94-12.16h0Z"/>
  <path class="st0" d="M12.99,48.35c-1.06,0-1.92.87-1.92,1.92v18.55c0,1.06.87,1.92,1.92,1.92h4.17v-22.43l-4.17.03h0Z"/>
  <path class="st0" d="M30.52,86.27l14.03,38.71s.05.05.08.05h15.2s.05,0,.08-.03.03-.05,0-.08l-14-38.62-15.38-.03h0Z"/>
</svg>