<?xml version="1.0" encoding="UTF-8"?>
<svg xmlns="http://www.w3.org/2000/svg" width="144" height="144" version="1.1" viewBox="0 0 144 144">
  <defs>
    <style>
      .st0 {
        fill: #c7c7c7;
      }
    </style>
  </defs>
  <path class="st0" d="M116.61,63.16c1.18-.29,2.05-1.37,2.05-2.55v-8.65c0-3.55-2.84-6.39-6.39-6.39h-21.9s0,9.04,0,9.04h-5.31v-9.04s-53.33,0-53.33,0c-3.55,0-6.39,2.84-6.39,6.39v40.08c0,1.76.68,3.34,1.87,4.52,1.18,1.18,2.76,1.87,4.52,1.87h53.25s0-9.04,0-9.04h5.29v9.04s21.9,0,21.9,0c3.55,0,6.39-2.84,6.39-6.39v-8.65c0-1.29-.89-2.36-2.05-2.55-4.13-.97-6.97-4.52-6.97-8.84.08-4.23,2.95-7.86,7.07-8.84h0ZM71.99,68.25l-8.46,6.29c-.39.25-.64.89-.39,1.29l3.22,10c.39,1.16-.89,2.05-1.8,1.29l-8.59-6.16c-.39-.25-1.02-.25-1.41,0l-8.59,6.16c-.89.64-2.18-.25-1.8-1.29l3.22-10c.12-.52,0-1.02-.39-1.29l-8.46-6.29c-.89-.64-.52-2.18.64-2.18l10.52-.12c.52,0,1.02-.39,1.16-.77l3.34-10.02c.39-1.16,1.93-1.16,2.3,0l3.34,10c.12.52.64.77,1.16.77l10.52.12c.89.02,1.41,1.43.5,2.2h0ZM90.26,76.63h-5.31v-9.73h5.31v9.73Z"/>
</svg>