<?xml version="1.0" encoding="UTF-8"?>
<svg id="Layer_1" xmlns="http://www.w3.org/2000/svg" version="1.1" viewBox="0 0 144 144">
  <!-- Generator: Adobe Illustrator 30.1.0, SVG Export Plug-In . SVG Version: 2.1.1 Build 136)  -->
  <path d="M97.5904,39.5729h-50.6094c-6.7142,0-12.1728,5.4411-12.1728,12.1728v54.0973c0,6.7142,5.4411,12.1728,12.1728,12.1728h50.6094c6.7142,0,12.1728-5.4411,12.1728-12.1728v-54.1147c0-6.7142-5.4411-12.1728-12.1728-12.1728v.0174ZM76.6456,106.7323c-1.3777,1.2208-2.9821,1.8311-4.761,1.8311s-3.4705-.6104-4.8482-1.7963c-1.4475-1.2556-2.1799-2.9821-2.1799-5.1621,0-1.9358.6976-3.5925,2.0579-4.9179,1.3428-1.3254,3.017-1.9881,4.9703-1.9881s3.5751.6801,4.9179,2.0055c1.3254,1.3254,2.0055,2.9821,2.0055,4.9179,0,2.1276-.7325,3.8541-2.1451,5.1272l-.0174-.0174ZM89.9868,70.6151c-.8894,1.6393-1.9532,3.0693-3.1565,4.2552-1.1161,1.0987-3.0868,2.895-5.9817,5.4934-.7325.6627-1.3254,1.2556-1.7439,1.7439-.3837.436-.6627.8197-.8197,1.151-.1744.3488-.3139.6976-.4186,1.0289-.1221.436-.3139,1.2033-.5581,2.2846-.5755,3.1914-2.6508,4.9702-5.8248,4.9702-1.6568,0-3.0868-.5581-4.2378-1.6568-1.1859-1.1336-1.7788-2.738-1.7788-4.7784,0-2.1625.3488-4.0983,1.0464-5.7376.6801-1.6044,1.587-3.0345,2.7206-4.2552,1.0289-1.0987,2.4241-2.4415,4.1506-3.9588,1.3952-1.2208,2.4764-2.2148,3.1391-2.8601.5406-.5406.994-1.151,1.3777-1.8137.2965-.5581.4534-1.1336.4534-1.7788,0-1.3603-.4883-2.4764-1.4998-3.4007-1.0464-.9766-2.4066-1.4475-4.1506-1.4475-2.0404,0-3.5053.4709-4.3599,1.3777-1.0289,1.0812-1.9183,2.7903-2.6682,5.04-1.3428,4.4471-4.4122,5.1098-6.1387,5.1098s-3.3135-.6453-4.5343-1.9009c-1.2208-1.2382-1.8311-2.6508-1.8311-4.1855,0-2.5287.8022-5.0749,2.3892-7.6036,1.5696-2.4938,3.8541-4.5866,6.8188-6.2085,2.9647-1.6219,6.4352-2.4415,10.3242-2.4415,3.61,0,6.8537.6801,9.644,2.0404,2.8426,1.3777,5.0923,3.2786,6.6619,5.6678,1.587,2.4066,2.3892,5.0574,2.3892,7.9001,0,2.2497-.4709,4.2727-1.3952,5.9992l-.0174-.0349Z" style="fill: #c7c7c7;"/>
  <path d="M90.2135,36.085l-26.9963-6.4003c-5.5981-1.3254-11.2136,1.4649-13.6726,6.4003h40.6689Z" style="fill: #c7c7c7;"/>
  <path d="M112.4488,41.3517l-4.1157-.9766c3.017,2.8601,4.9179,6.8886,4.9179,11.3705v39.0644l8.2489-34.7918c1.5521-6.5398-2.4938-13.097-9.0336-14.6492l-.0174-.0174Z" style="fill: #c7c7c7;"/>
  <g>
    <path d="M94.1374,33.4167c-2.459-4.6563-7.778-7.342-13.2017-6.2259l-7.0107,1.4475,20.2124,4.7784Z" style="fill: #c7c7c7;"/>
    <path d="M31.3204,51.7282c0-8.1966,6.3305-14.9456,14.3701-15.6083.2442-.6453.5232-1.2556.8371-1.8486l-15.1898,3.1217c-6.5572,1.3603-10.795,7.7954-9.4522,14.3701l9.4348,45.8484s0-45.8833,0-45.8833Z" style="fill: #c7c7c7;"/>
  </g>
</svg>