<?xml version="1.0" encoding="UTF-8"?>
<svg id="Layer_1" xmlns="http://www.w3.org/2000/svg" version="1.1" viewBox="0 0 144 144">
  <!-- Generator: Adobe Illustrator 30.1.0, SVG Export Plug-In . SVG Version: 2.1.1 Build 136)  -->
  <path d="M90.2135,36.085l-26.9963-6.4003c-5.5981-1.3254-11.2136,1.4649-13.6726,6.4003h40.6689Z" style="fill: #c7c7c7;"/>
  <path d="M112.4488,41.3517l-4.1157-.9766c3.017,2.8601,4.9179,6.8886,4.9179,11.3705v39.0644l8.2489-34.7918c1.5521-6.5398-2.4938-13.097-9.0336-14.6492l-.0174-.0174Z" style="fill: #c7c7c7;"/>
  <g>
    <path d="M94.1374,33.4167c-2.459-4.6563-7.778-7.342-13.2017-6.2259l-7.0107,1.4475,20.2124,4.7784Z" style="fill: #c7c7c7;"/>
    <path d="M31.3204,51.7282c0-8.1966,6.3305-14.9456,14.3701-15.6083.2442-.6453.5232-1.2556.8371-1.8486l-15.1898,3.1217c-6.5572,1.3603-10.795,7.7954-9.4522,14.3701l9.4348,45.8484s0-45.8833,0-45.8833Z" style="fill: #c7c7c7;"/>
  </g>
  <g>
    <path d="M83.8659,65.0718v8.3755c3.8951-.7266,5.0455-4.2988,4.3392-8.3755h-4.3392Z" style="fill: #c7c7c7;"/>
    <path d="M60.7373,73.4474v-8.3755h-4.3997c-.6055,4.7024.7871,7.6893,4.3997,8.3755Z" style="fill: #c7c7c7;"/>
    <path d="M97.5904,39.5554v.0175h-50.6094c-6.7142,0-12.1728,5.4411-12.1728,12.1727v54.0972c0,6.7142,5.4412,12.1728,12.1728,12.1728h50.6094c6.7142,0,12.1727-5.4411,12.1727-12.1728v-54.1147c0-6.7142-5.4411-12.1727-12.1727-12.1727ZM83.5472,100.2491h-22.5433v-4.7831h22.5433v4.7831ZM92.5038,69.7339c-.5449,4.4602-4.2181,7.7297-8.7186,8.2141-.5449.0605-.7871.2422-1.0293.7266-1.4935,3.1484-3.9153,5.2675-7.2656,6.2564-.6256.1816-.9283.444-.8275,1.0898v.1009c-.222,1.6348.0403,2.8658,1.8971,3.5319,1.4128.5248,2.3613,1.8164,3.1484,3.3301h-14.8338c.8275-1.554,1.8568-2.886,3.4108-3.4713,1.4935-.5651,1.7559-1.4531,1.6953-2.8658-.0404-1.0293-.222-1.5339-1.332-1.877-3.1282-.9889-5.3886-3.0878-6.8013-6.0748-.222-.4642-.444-.6862-1.0091-.7468-5.1464-.5651-8.9003-4.7629-8.9407-9.9901v-7.326h8.8599v-3.3099h23.0277v3.2695h8.7792c0,3.1686.2825,6.1959-.0605,9.1425Z" style="fill: #c7c7c7;"/>
  </g>
</svg>