<?xml version="1.0" encoding="UTF-8"?>
<svg id="Layer_1" xmlns="http://www.w3.org/2000/svg" version="1.1" viewBox="0 0 144 144">
  <!-- Generator: Adobe Illustrator 30.1.0, SVG Export Plug-In . SVG Version: 2.1.1 Build 136)  -->
  <path d="M90.2135,36.085l-26.9963-6.4003c-5.5981-1.3254-11.2136,1.4649-13.6726,6.4003h40.6689Z" style="fill: #c7c7c7;"/>
  <path d="M112.4488,41.3517l-4.1157-.9766c3.017,2.8601,4.9179,6.8886,4.9179,11.3705v39.0644l8.2489-34.7918c1.5521-6.5398-2.4938-13.097-9.0336-14.6492l-.0174-.0174Z" style="fill: #c7c7c7;"/>
  <g>
    <path d="M94.1374,33.4167c-2.459-4.6563-7.778-7.342-13.2017-6.2259l-7.0107,1.4475,20.2124,4.7784Z" style="fill: #c7c7c7;"/>
    <path d="M31.3204,51.7282c0-8.1966,6.3305-14.9456,14.3701-15.6083.2442-.6453.5232-1.2556.8371-1.8486l-15.1898,3.1217c-6.5572,1.3603-10.795,7.7954-9.4522,14.3701l9.4348,45.8484s0-45.8833,0-45.8833Z" style="fill: #c7c7c7;"/>
  </g>
  <path d="M97.5904,39.5554v.0175h-50.6094c-6.7142,0-12.1728,5.4411-12.1728,12.1727v54.0972c0,6.7142,5.4412,12.1728,12.1728,12.1728h50.6094c6.7142,0,12.1727-5.4411,12.1727-12.1728v-54.1147c0-6.7142-5.4411-12.1727-12.1727-12.1727ZM95.9689,71.6669l-23.2842,24.3853c-1.3689,1.3693-3.2623,2.1544-5.1945,2.1544-1.7708,0-3.4711-.6442-4.7874-1.8152l-13.6993-12.0164c-1.4486-1.2916-2.3121-3.0356-2.4562-4.9326-.1497-1.9625.4852-3.8474,1.7869-5.3074,1.39-1.5583,3.3751-2.4521,5.4473-2.4521,1.7339,0,3.4132.6292,4.7287,1.7715l8.5498,7.5038,18.9359-19.8281.2048-.1024c1.3029-1.0812,2.9135-1.6631,4.6146-1.6631,1.9334,0,3.7495.7518,5.114,2.1167,1.3644,1.3632,2.1163,3.1797,2.1163,5.1131,0,1.9131-.7372,3.7126-2.0767,5.0726Z" style="fill: #c7c7c7;"/>
</svg>