<?xml version="1.0" encoding="UTF-8"?>
<svg id="Layer_1" xmlns="http://www.w3.org/2000/svg" version="1.1" viewBox="0 0 144 144">
  <!-- Generator: Adobe Illustrator 30.3.0, SVG Export Plug-In . SVG Version: 2.1.3 Build 182)  -->
  <g>
    <path d="M37.6743,96.3596l24.5018-24.5017c-.6045-.2845-1.0313-.889-.9957-1.7781v-28.4491c-.0356-1.1735.8535-2.0626,2.027-2.027,1.1735-.0356,2.0626.8535,2.027,2.027v27.1688l26.4221-26.4221v-2.8093c1.3158.0356,2.596-.3201,3.7339-.9246l3.4494-3.4494c.6045-1.138.9602-2.4182.9246-3.7339.1422-4.3385-3.8051-8.2858-8.108-8.1791h-40.6466c-10.6684.2134-10.6684,16.0382,0,16.2515v32.5386c-9.1748-.0711-16.6071,11.4863-16.2871,20.3766-.0711,1.7781,1.2802,3.4139,2.9516,3.9117Z" style="fill: #c7c7c7;"/>
    <path d="M93.6833,72.2846l-28.5557,28.5557,4.1607,26.4576c.2134,1.138.889,1.7069,2.027,1.7069,1.0313.0711,1.8848-.8535,2.027-1.8492l3.2361-30.6894c1.7781-.4267,29.7648,1.2091,30.1204-1.2091,3.3072-4.7297-.569-12.6598-3.7695-16.8916-2.8093-3.485-5.8676-5.512-9.2459-6.081Z" style="fill: #c7c7c7;"/>
  </g>
  <path d="M33.0157,116.9852h0c-2.4182-2.4182-2.4182-6.3655,0-8.7836L109.9704,31.2468c2.4182-2.4182,6.3655-2.4182,8.7836,0h0c2.4182,2.4182,2.4182,6.3655,0,8.7836L41.7994,116.9852c-2.4182,2.4182-6.3655,2.4182-8.7836,0Z" style="fill: #c7c7c7;"/>
</svg>