<?xml version="1.0" encoding="UTF-8"?>
<svg id="Layer_1" xmlns="http://www.w3.org/2000/svg" width="144" height="144" version="1.1" viewBox="0 0 144 144">
  <!-- Generator: Adobe Illustrator 30.0.0, SVG Export Plug-In . SVG Version: 2.1.1 Build 123)  -->
  <defs>
    <style>
      .st0 {
        fill: #c7c7c7;
      }
    </style>
  </defs>
  <path class="st0" d="M73.4,14.2l5.8-5.8c-2.3-.8-4.7-1.3-7.2-1.3s-3.5.2-5.2.5c0,0,6.6,6.6,6.6,6.6Z"/>
  <path class="st0" d="M97.2,32.3c0-1.9-.3-3.8-.9-5.7l-5.3,5.3,6.2,6.2v-5.8Z"/>
  <path class="st0" d="M48.5,39.1l7.3-7.3-7.3-7.3c-.1-.1-.2-.3-.4-.4-.9,2.5-1.3,5.3-1.3,8.1v8.9c.5-.8,1-1.5,1.7-2.1v.1Z"/>
  <path class="st0" d="M89.5,60.4c-3.3,0-6.5-1.3-8.8-3.6l-7.3-7.3-7.3,7.3c-2.4,2.4-5.5,3.6-8.8,3.6s-6.5-1.3-8.8-3.6c-.7-.7-1.2-1.4-1.7-2.1v14.6c0,11.3,11.3,25.2,25.2,25.2s25.2-11.3,25.2-25.2v-11.5c-2.2,1.7-4.9,2.7-7.7,2.7v-.1Z"/>
  <path class="st0" d="M93.3,44.1l-12.2-12.2,12.2-12.2c2.1-2.1,2.1-5.6,0-7.7s-5.6-2.1-7.7,0l-12.2,12.2-12.2-12.2c-2.1-2.1-5.6-2.1-7.7,0-2.1,2.1-2.1,5.6,0,7.7l12.2,12.2-12.2,12.2c-2.1,2.1-2.1,5.6,0,7.7,2.1,2.1,5.6,2.1,7.7,0l12.2-12.2,12.2,12.2c2.1,2.1,5.6,2.1,7.7,0h0c2.1-2.1,2.1-5.6,0-7.7Z"/>
  <path class="st0" d="M67.7,111.1c-21.8-2.1-38.9-20.6-38.9-42.9,0-1.5.8-2.8,2.1-3.6,2.65-1.55,6.29.47,6.2,3.6,0,19.23,15.67,34.86,34.9,34.8,19.2,0,34.8-15.6,34.8-34.8-.1-3.13,3.56-5.15,6.2-3.6,1.3.8,2.1,2.1,2.1,3.6,0,22.3-17.1,40.8-38.9,42.9v17.4h16.8c3.13-.1,5.15,3.56,3.6,6.2-.8,1.3-2.1,2.1-3.6,2.1h-42c-1.1,0-2.2-.4-3-1.2-2.76-2.6-.73-7.28,3-7.2,0,0,16.8,0,16.8,0v-17.29h-.1Z"/>
</svg>