<?xml version="1.0" encoding="UTF-8"?>
<svg id="Layer_1" xmlns="http://www.w3.org/2000/svg" width="144" height="144" version="1.1" viewBox="0 0 144 144">
  <!-- Generator: Adobe Illustrator 30.0.0, SVG Export Plug-In . SVG Version: 2.1.1 Build 123)  -->
  <defs>
    <style>
      .st0 {
        fill: #c7c7c7;
      }
    </style>
  </defs>
  <path class="st0" d="M67.7,111.1c-21.8-2.1-38.9-20.6-38.9-42.9,0-1.5.8-2.8,2.1-3.6,2.65-1.55,6.29.47,6.2,3.6,0,19.23,15.67,34.86,34.9,34.8,19.2,0,34.8-15.6,34.8-34.8-.1-3.13,3.56-5.15,6.2-3.6,1.3.8,2.1,2.1,2.1,3.6,0,22.3-17.1,40.8-38.9,42.9v17.4h16.8c3.13-.1,5.15,3.56,3.6,6.2-.8,1.3-2.1,2.1-3.6,2.1h-42c-1.1,0-2.2-.4-3-1.2-2.76-2.6-.73-7.28,3-7.2h16.8v-17.29h-.1Z"/>
  <path class="st0" d="M84.47,38.02c-9.9,0-17.96-8.06-17.96-17.96,0-5.09,2.14-9.69,5.56-12.96-.02,0-.05,0-.07,0-13.9,0-25.2,11.3-25.2,25.2v36.9c0,11.3,11.3,25.2,25.2,25.2s25.2-11.3,25.2-25.2v-36.49c-3.26,3.28-7.76,5.31-12.73,5.31Z"/>
  <circle class="st0" cx="84.47" cy="20.06" r="10.96"/>
</svg>