<?xml version="1.0" encoding="UTF-8"?>
<svg id="Layer_1" xmlns="http://www.w3.org/2000/svg" width="144" height="144" version="1.1" viewBox="0 0 144 144">
  <!-- Generator: Adobe Illustrator 30.0.0, SVG Export Plug-In . SVG Version: 2.1.1 Build 123)  -->
  <defs>
    <style>
      .st0 {
        fill: #c7c7c7;
      }
    </style>
  </defs>
  <path class="st0" d="M100.35,56.09c-1.43-17.07-15.75-30.23-32.9-30.23s-31.47,13.16-32.9,30.23h-9.22c0,19.88,9.4,42.63,28.6,49.12l-5.83,4.9v8.04h38.69v-8.04l-5.83-4.9c16.08-5.43,27.4-26.55,28.52-43.56h3.62v26.66h5.56v-32.22h-18.31ZM94.67,55.36h-54.45c.16-1.25.4-2.47.72-3.66,21-9.95,32.89-9.98,52.97-.12.34,1.23.6,2.49.76,3.78ZM94.09,65.54c-21.11,10-33.02,9.98-53.29-.04-.25-1.01-.44-2.05-.58-3.1h54.46c-.14,1.07-.33,2.12-.59,3.14ZM90.17,74.31c-4.94,7.26-13.27,12.01-22.71,12.01s-17.56-4.65-22.52-11.75c8.12,3.63,14.7,5.46,22.22,5.46s14.38-1.91,23.01-5.72ZM67.45,31.41c9.12,0,17.12,4.4,22.1,11.17-16.42-7.18-27.22-7.15-44.27.08,5-6.82,13.06-11.25,22.17-11.25ZM67.45,101.88c-19.12,0-35.03-21.18-36.45-40.21h3.53c1.43,17.09,15.75,30.23,32.9,30.23s31.47-13.16,32.9-30.23h3.55c-1.41,19.03-17.32,40.21-36.43,40.21Z"/>
</svg>