<?xml version="1.0" encoding="UTF-8"?>
<svg id="Layer_1" xmlns="http://www.w3.org/2000/svg" width="144" height="144" version="1.1" viewBox="0 0 144 144">
  <!-- Generator: Adobe Illustrator 30.0.0, SVG Export Plug-In . SVG Version: 2.1.1 Build 123)  -->
  <defs>
    <style>
      .st0 {
        fill: #c7c7c7;
      }
    </style>
  </defs>
  <path class="st0" d="M105.27,34.42c-14.45,0-26.99,8.15-33.29,20.12-6.28-11.97-18.81-20.12-33.27-20.12-20.76,0-37.58,16.83-37.58,37.58,0,20.76,16.83,37.58,37.58,37.58,14.45,0,26.99-8.15,33.29-20.12,6.28,11.97,18.84,20.12,33.29,20.12,20.76,0,37.58-16.83,37.58-37.58,0-20.76-16.85-37.58-37.6-37.58ZM60.5,77.38h-16.42s0,16.42,0,16.42c0,2.96-2.42,5.38-5.38,5.38s-5.38-2.42-5.38-5.38v-16.42s-16.42,0-16.42,0c-2.96,0-5.38-2.42-5.38-5.38s2.42-5.38,5.38-5.38h16.4s0-16.42,0-16.42c0-2.96,2.42-5.38,5.38-5.38s5.38,2.42,5.38,5.38v16.42s16.42,0,16.42,0c2.98,0,5.38,2.39,5.4,5.38,0,2.96-2.42,5.38-5.38,5.38ZM127.06,77.38h-43.59c-2.96,0-5.38-2.42-5.38-5.38s2.42-5.38,5.38-5.38h43.57c2.98,0,5.38,2.39,5.4,5.38,0,2.96-2.42,5.38-5.38,5.38Z"/>
</svg>