<?xml version="1.0" encoding="UTF-8"?>
<svg id="Layer_1" xmlns="http://www.w3.org/2000/svg" width="144" height="144" version="1.1" viewBox="0 0 144 144">
  <!-- Generator: Adobe Illustrator 30.0.0, SVG Export Plug-In . SVG Version: 2.1.1 Build 123)  -->
  <defs>
    <style>
      .st0 {
        fill: #c7c7c7;
      }
    </style>
  </defs>
  <path class="st0" d="M8.09,67.22c0-16.62,6.33-31.76,16.68-43.16l6.63,6.03c-8.91,9.81-14.34,22.82-14.34,37.13s5.43,27.32,14.34,37.13l-6.63,6.03c-10.38-11.4-16.68-26.54-16.68-43.16h0ZM112.61,104.35c8.91-9.81,14.34-22.82,14.34-37.13s-5.43-27.32-14.34-37.13l6.63-6.03c10.35,11.4,16.68,26.54,16.68,43.16s-6.33,31.76-16.68,43.16l-6.63-6.03ZM35.35,67.22c0-9.66,3.66-18.47,9.69-25.1l6.63,6.03c-4.59,5.04-7.38,11.73-7.38,19.07s2.79,14.04,7.38,19.07l-6.63,6.03c-6.03-6.66-9.69-15.45-9.69-25.1h0ZM62.13,67.19c0-5.46,4.41-9.87,9.87-9.87,5.46,0,9.87,4.41,9.87,9.87,0,4.41-2.88,8.13-6.87,9.42l8.52,43.34h-23s8.52-43.34,8.52-43.34c-4.02-1.29-6.9-5.04-6.9-9.42h0ZM92.33,86.29c4.59-5.04,7.38-11.73,7.38-19.07,0-7.35-2.79-14.04-7.38-19.07l6.63-6.03c6.03,6.63,9.69,15.42,9.69,25.1s-3.66,18.47-9.69,25.1l-6.63-6.03Z"/>
</svg>