<?xml version="1.0" encoding="UTF-8"?>
<svg id="Layer_1" xmlns="http://www.w3.org/2000/svg" width="144" height="144" version="1.1" viewBox="0 0 144 144">
  <!-- Generator: Adobe Illustrator 30.0.0, SVG Export Plug-In . SVG Version: 2.1.1 Build 123)  -->
  <defs>
    <style>
      .st0 {
        fill: #c7c7c7;
      }
    </style>
  </defs>
  <path class="st0" d="M106.02,50.53v4.81c0,3.1-1.86,5.89-4.65,6.97l-38.43,15.65v-6.97c10.69-2.79,18.6-12.4,18.6-24.02,0-13.64-11.16-24.8-24.8-24.8s-24.8,11.16-24.8,24.8c0,11.62,7.9,21.23,18.6,24.02v12.09l-12.4,5.11c-7.59,3.1-12.4,10.38-12.4,18.44v15.19h12.4v-15.19c0-3.1,1.86-5.89,4.65-6.97l32.54-13.17v35.33h12.4v-40.6l18.13-7.44c7.59-3.1,12.4-10.38,12.4-18.44v-4.81h-12.24ZM44.34,46.97c0-6.82,5.58-12.4,12.4-12.4s12.4,5.58,12.4,12.4-5.58,12.4-12.4,12.4-12.4-5.58-12.4-12.4Z"/>
  <g>
    <path d="M115.47,6.67v12.38l11.38-3.92,3.46,9.07-11.38,4.77,7.15,10.15-7.69,5.69-7.76-10.22-7.61,10.22-8.07-5.69,7.23-10.53-11.45-4.38,3.31-9.07,11.76,3.92V6.67h9.69Z"/>
    <path class="st0" d="M115.47,6.67v12.38l11.38-3.92,3.46,9.07-11.38,4.77,7.15,10.15-7.69,5.69-7.76-10.22-7.61,10.22-8.07-5.69,7.23-10.53-11.45-4.38,3.31-9.07,11.76,3.92V6.67h9.69Z"/>
  </g>
</svg>