<?xml version="1.0" encoding="UTF-8"?>
<svg id="Layer_1" xmlns="http://www.w3.org/2000/svg" width="144" height="144" version="1.1" viewBox="0 0 144 144">
  <!-- Generator: Adobe Illustrator 30.0.0, SVG Export Plug-In . SVG Version: 2.1.1 Build 123)  -->
  <defs>
    <style>
      .st0 {
        fill: #c7c7c7;
      }
    </style>
  </defs>
  <path class="st0" d="M111.37,65.84l-11.37,11.37-20.25-20.25v34.16h-14.09v-35.2h13.05s-2.6-2.6-2.6-2.6l14.71-14.71-14.71-14.71,7.18-7.18c-2.58-3.41-6.62-5.38-11.26-5.38-5.32,0-9.71,2.59-12.3,6.98L6.65,111.59c-2.43,4.39-2.43,9.71,0,14.09,2.43,4.39,6.98,6.98,12.14,6.98h106.02c5.16,0,9.71-2.59,12.14-6.98,2.88-4.39,2.88-9.67.45-14.09l-26.03-45.75ZM79.75,110.53h-14.09v-12.3h14.09v12.3Z"/>
  <polygon class="st0" points="139.18 23.89 129.43 14.15 114.71 28.86 100 14.15 90.25 23.89 104.96 38.61 90.25 53.32 100 63.07 114.71 48.36 129.43 63.07 139.18 53.32 124.46 38.61 139.18 23.89"/>
</svg>