<?xml version="1.0" encoding="UTF-8"?>
<svg id="Layer_1" xmlns="http://www.w3.org/2000/svg" width="144" height="144" version="1.1" viewBox="0 0 144 144">
  <!-- Generator: Adobe Illustrator 30.0.0, SVG Export Plug-In . SVG Version: 2.1.1 Build 123)  -->
  <defs>
    <style>
      .st0 {
        fill: #c7c7c7;
      }
    </style>
  </defs>
  <path class="st0" d="M42.28,52.21c-2.77,0-4.94-2.46-4.55-5.21.51-3.55,2.01-5.11,6.32-8.49,4.02-3.2,4.99-4.55,4.99-7.08,0-3.94-3.2-6.71-7.67-6.71-4.35,0-6.99,1.66-8,5.03-.59,1.93-2.26,3.3-4.27,3.3h-.39c-3.12,0-5.4-3.08-4.37-6.03,2.42-6.89,8.72-11.04,17.33-11.04,10.36,0,17.29,6.03,17.29,15.04,0,3.43-.98,6.19-2.99,8.72-1.42,1.64-2.09,2.3-6.03,5.29-1.44,1.13-2.32,2.28-2.73,3.84-.53,1.97-2.36,3.3-4.41,3.3h-.53s0,.04,0,.04Z"/>
  <rect class="st0" x="37.27" y="56.23" width="10.42" height="10.42" rx="4.59" ry="4.59"/>
  <g>
    <polygon class="st0" points="93.69 83.76 132.27 111.01 93.69 138.26 93.69 83.76"/>
    <rect class="st0" x="131.27" y="83.76" width="8.68" height="54.5"/>
  </g>
  <path class="st0" d="M69.15,0H13.83C6.19,0,0,6.18,0,13.83v55.31c0,7.63,6.19,13.83,13.83,13.83h10.48s17.19,17.19,17.19,17.19h0l17.19-17.19h10.48c7.65,0,13.83-6.2,13.83-13.83V13.83C82.98,6.18,76.8,0,69.15,0ZM66.83,73.58h-9.56s-2.46,0-2.46,0l-2.1,2.1v-.02s-11.22,11.21-11.22,11.21l-13.29-13.29h-2.46s-9.56,0-9.56,0c-3.75,0-6.77-3.02-6.77-6.77V16.17c0-3.75,3.02-6.77,6.77-6.77h50.63c3.75,0,6.77,3.02,6.77,6.77l.02,50.63c0,3.75-3.02,6.77-6.77,6.77Z"/>
</svg>