<?xml version="1.0" encoding="UTF-8"?>
<svg xmlns="http://www.w3.org/2000/svg" width="144" height="144" version="1.1" viewBox="0 0 144 144">
  <!-- Generator: Adobe Illustrator 30.0.0, SVG Export Plug-In . SVG Version: 2.1.1 Build 123)  -->
  <defs>
    <style>
      .st0 {
        fill: #c7c7c7;
      }

      .st1 {
        fill: #c6c6c6;
      }
    </style>
  </defs>
  <path class="st0" d="M19.67,136.78V53.42c0-9.72,7.91-17.63,17.63-17.63h69.41c9.72,0,17.63,7.91,17.63,17.63v34.35c0,9.72-7.91,17.63-17.63,17.63h-54.99s-32.04,31.38-32.04,31.38ZM37.3,47.13c-3.47,0-6.29,2.82-6.29,6.29v56.38s16.08-15.75,16.08-15.75h59.62c3.47,0,6.29-2.82,6.29-6.29v-34.35c0-3.47-2.82-6.29-6.29-6.29H37.3Z"/>
  <g>
    <path class="st1" d="M46.48,78.16l-2.84-2.06c-.85-.6-.88-.88-.18-1.63l3.3-3.48-4.6-.76c-1.03-.18-1.18-.39-.85-1.39l1.09-3.36c.3-1,.57-1.12,1.48-.67l4.29,1.93-.7-4.5c-.15-1.03.06-1.24,1.09-1.24h3.54c1.03,0,1.21.21,1.03,1.24l-.6,4.5,4.14-1.93c.91-.45,1.15-.33,1.48.67l1.12,3.36c.33,1,.18,1.21-.85,1.39l-4.63.76,3.33,3.48c.7.76.67,1.03-.18,1.63l-2.84,2.06c-.88.57-1.09.48-1.57-.36l-2.24-4.26-2.21,4.26c-.48.85-.73.94-1.6.36Z"/>
    <path class="st1" d="M68.19,78.16l-2.84-2.06c-.85-.6-.88-.88-.18-1.63l3.3-3.48-4.6-.76c-1.03-.18-1.18-.39-.85-1.39l1.09-3.36c.3-1,.57-1.12,1.48-.67l4.29,1.93-.7-4.5c-.15-1.03.06-1.24,1.09-1.24h3.54c1.03,0,1.21.21,1.03,1.24l-.6,4.5,4.14-1.93c.91-.45,1.15-.33,1.48.67l1.12,3.36c.33,1,.18,1.21-.85,1.39l-4.63.76,3.33,3.48c.7.76.67,1.03-.18,1.63l-2.84,2.06c-.88.57-1.09.48-1.57-.36l-2.24-4.26-2.21,4.26c-.48.85-.73.94-1.6.36Z"/>
    <path class="st1" d="M89.9,78.16l-2.84-2.06c-.85-.6-.88-.88-.18-1.63l3.3-3.48-4.6-.76c-1.03-.18-1.18-.39-.85-1.39l1.09-3.36c.3-1,.57-1.12,1.48-.67l4.29,1.93-.7-4.5c-.15-1.03.06-1.24,1.09-1.24h3.54c1.03,0,1.21.21,1.03,1.24l-.6,4.5,4.14-1.93c.91-.45,1.15-.33,1.48.67l1.12,3.36c.33,1,.18,1.21-.85,1.39l-4.63.76,3.33,3.48c.7.76.67,1.03-.18,1.63l-2.84,2.06c-.88.57-1.09.48-1.57-.36l-2.24-4.26-2.21,4.26c-.48.85-.73.94-1.6.36Z"/>
  </g>
</svg>