<?xml version="1.0" encoding="UTF-8"?>
<svg xmlns="http://www.w3.org/2000/svg" width="144" height="144" version="1.1" viewBox="0 0 144 144">
  <defs>
    <style>
      .st0 {
        fill: #c7c7c7;
      }
    </style>
  </defs>
  <path class="st0" d="M84.82,104.56h-25.64c-8.34,0-15.1,6.76-15.1,15.1h0c0,8.34,6.76,15.1,15.1,15.1h25.64c8.34,0,15.1-6.76,15.1-15.1h0c0-8.34-6.76-15.1-15.1-15.1ZM84.82,130.26c-5.86,0-10.6-4.75-10.6-10.6,0-5.86,4.75-10.6,10.6-10.6,5.86,0,10.6,4.75,10.6,10.6,0,5.86-4.75,10.6-10.6,10.6Z"/>
  <path class="st0" d="M13.36,48.84c0-15.24,5.81-29.14,15.3-39.59l6.08,5.53c-8.17,9-13.15,20.94-13.15,34.06s4.98,25.07,13.15,34.06l-6.08,5.53c-9.52-10.46-15.3-24.35-15.3-39.59h0ZM109.26,82.9c8.17-9,13.15-20.94,13.15-34.06,0-13.12-4.98-25.07-13.15-34.06l6.08-5.53c9.49,10.46,15.3,24.35,15.3,39.59,0,15.24-5.81,29.14-15.3,39.59l-6.08-5.53ZM38.38,48.84c0-8.86,3.36-16.95,8.89-23.03l6.08,5.53c-4.21,4.62-6.77,10.76-6.77,17.5s2.56,12.88,6.77,17.5l-6.08,5.53c-5.53-6.11-8.89-14.17-8.89-23.03h0ZM62.95,48.81c0-5.01,4.04-9.05,9.05-9.05,5.01,0,9.05,4.04,9.05,9.05,0,4.04-2.64,7.46-6.3,8.64l7.81,39.76h-21.1s7.81-39.76,7.81-39.76c-3.69-1.18-6.33-4.62-6.33-8.64h0ZM90.66,66.34c4.21-4.62,6.77-10.76,6.77-17.5s-2.56-12.88-6.77-17.5l6.08-5.53c5.53,6.08,8.89,14.14,8.89,23.03s-3.36,16.95-8.89,23.03l-6.08-5.53Z"/>
</svg>