<?xml version="1.0" encoding="UTF-8"?>
<svg xmlns="http://www.w3.org/2000/svg" width="144" height="144" version="1.1" viewBox="0 0 144 144">
  <defs>
    <style>
      .st0 {
        fill: #c7c7c7;
      }

      .st1 {
        fill: none;
        stroke: #c7c7c7;
        stroke-miterlimit: 10;
        stroke-width: 4px;
      }
    </style>
  </defs>
  <line class="st1" x1="27.47" y1="27.47" x2="116.53" y2="27.47"/>
  <line class="st1" x1="27.47" y1="57.16" x2="116.53" y2="57.16"/>
  <line class="st1" x1="27.47" y1="86.84" x2="116.53" y2="86.84"/>
  <line class="st1" x1="27.47" y1="116.53" x2="116.53" y2="116.53"/>
  <line class="st1" x1="116.53" y1="27.47" x2="116.53" y2="116.53"/>
  <line class="st1" x1="86.84" y1="27.47" x2="86.84" y2="116.53"/>
  <line class="st1" x1="57.16" y1="27.47" x2="57.16" y2="116.53"/>
  <line class="st1" x1="27.47" y1="27.47" x2="27.47" y2="116.53"/>
  <path class="st0" d="M104.51,33.62c-2.15,2.33-3.92,4.93-5.26,7.75-.58-.8-1.14-1.62-1.64-2.52-2.36-4.21-8.84-.44-6.48,3.79,1.8,3.23,4.13,6.1,6.95,8.48,2.02,1.71,5.6,1.3,6.27-1.65.91-4,2.66-7.52,5.46-10.55,3.27-3.54-2.02-8.86-5.3-5.3Z"/>
  <path class="st0" d="M75.74,92.93c-2.15,2.33-3.92,4.93-5.26,7.75-.58-.8-1.14-1.62-1.64-2.52-2.36-4.21-8.84-.44-6.48,3.79,1.8,3.23,4.13,6.1,6.95,8.48,2.02,1.71,5.6,1.3,6.27-1.65.91-4,2.66-7.52,5.46-10.54,3.27-3.54-2.02-8.86-5.3-5.3Z"/>
  <path class="st0" d="M46.06,92.93c-2.15,2.33-3.92,4.93-5.26,7.75-.58-.8-1.14-1.62-1.64-2.52-2.36-4.21-8.84-.44-6.48,3.79,1.8,3.23,4.13,6.1,6.95,8.48,2.02,1.71,5.6,1.3,6.27-1.65.91-4,2.66-7.52,5.46-10.54,3.27-3.54-2.02-8.86-5.3-5.3Z"/>
</svg>