<?xml version="1.0" encoding="UTF-8"?>
<svg xmlns="http://www.w3.org/2000/svg" width="144" height="144" version="1.1" viewBox="0 0 144 144">
  <defs>
    <style>
      .st0 {
        fill: #c7c7c7;
      }
    </style>
  </defs>
  <path class="st0" d="M36.15,13.61c-2.04.12-3.85,1.92-4,3.97-.15,2.04,1.38,4.09,3.37,4.51,1.26,13.01,2.4,23.26,5.41,31.77,2.58,7.33,6.88,13.31,13.4,18.15-6.49,4.84-10.82,10.82-13.4,18.15-3.01,8.51-4.15,18.72-5.41,31.77-2.07.45-3.58,2.61-3.34,4.72.27,2.1,2.28,3.82,4.39,3.73h71.02c2.04,0,3.97-1.68,4.24-3.73s-1.17-4.15-3.16-4.69c-1.26-13.04-2.4-23.29-5.41-31.8-2.58-7.33-6.91-13.31-13.4-18.15,6.52-4.84,10.82-10.82,13.4-18.15,3.01-8.51,4.15-18.75,5.41-31.8,1.98-.51,3.43-2.64,3.16-4.69-.27-2.07-2.16-3.76-4.24-3.76H36.15ZM44.14,22.15h55.9c-1.2,12.44-2.37,21.94-4.78,28.82-2.74,7.75-6.73,12.62-15.27,17.22-1.35.72-2.22,2.22-2.22,3.76s.9,3.04,2.22,3.76c8.54,4.6,12.53,9.5,15.27,17.25,2.43,6.88,3.58,16.35,4.78,28.82h-55.9c1.2-12.47,2.37-21.94,4.78-28.82,2.74-7.75,6.73-12.65,15.27-17.25,1.35-.72,2.22-2.22,2.22-3.76s-.9-3.04-2.22-3.76c-8.54-4.6-12.53-9.47-15.27-17.22-2.4-6.88-3.58-16.38-4.78-28.82h0ZM56.46,53.47c0,8.54,5.68,8.54,15.63,14.25,9.95-5.68,15.63-5.68,15.63-14.25h-31.26ZM72.09,90.47c-19.87,11.39-24.13,7.12-24.13,28.46h48.27c0-21.34-4.24-17.07-24.13-28.46h0Z"/>
</svg>