<?xml version="1.0" encoding="UTF-8"?>
<svg id="Layer_1" xmlns="http://www.w3.org/2000/svg" version="1.1" viewBox="0 0 144 144">
  <!-- Generator: Adobe Illustrator 30.6.0, SVG Export Plug-In . SVG Version: 2.1.4 Build 109)  -->
  <polygon points="77.371 104.3463 112.3726 87.0869 101.2686 52.3267 59.8701 39.895 32.1102 78.8796 77.371 104.3463" style="fill: #fff; isolation: isolate; opacity: .3;"/>
  <path d="M115.2693,79.6038h-.2414l-7.0003-21.9665c2.4139-1.569,3.8622-4.2243,3.8622-7.3624,0-4.8278-3.9829-8.8108-8.8108-8.8108-3.1381,0-5.7934,1.569-7.3624,4.1036l-28.0013-8.4487v-.2414c0-4.8278-3.9829-8.8108-8.8108-8.8108s-8.8108,3.9829-8.8108,8.8108c0,2.0518.7242,3.9829,1.9311,5.552l-20.5182,28.8462c-.9656-.3621-1.9311-.4828-2.8967-.4828-4.8278,0-8.8108,3.9829-8.8108,8.8108s3.9829,8.8108,8.8108,8.8108c2.4139,0,4.5864-.9656,6.1555-2.5346l34.0361,19.1906c-.1207.6035-.2414,1.3276-.2414,2.0518,0,4.8278,3.9829,8.8108,8.8108,8.8108s8.8108-3.9829,8.8108-8.8108c0-.4828,0-1.0863-.1207-1.569l22.8114-11.2247c1.569,1.8104,3.9829,2.8967,6.5175,2.8967,4.8278,0,8.8108-3.9829,8.8108-8.8108s-4.1036-8.8108-8.9315-8.8108h.0001ZM83.7678,101.0876c-1.569-1.6897-3.8623-2.8967-6.5175-2.8967-2.4139,0-4.5864.9656-6.1555,2.5346l-33.9154-19.0699c.1207-.6035.2414-1.3276.2414-2.0518,0-2.0518-.7242-3.9829-1.9311-5.4313l20.6389-28.8462c.8449.3621,1.8104.4828,2.8967.4828,3.0174,0,5.7934-1.569,7.3624-3.9829l28.122,8.4487v.1207c0,4.8278,3.9829,8.8108,8.8108,8.8108h.2414l7.0003,21.9665c-2.4139,1.569-3.8622,4.2243-3.8622,7.3624,0,.4828,0,1.0863.1207,1.569l-23.0528,10.9833h0Z" style="fill: #c7c7c7;"/>
</svg>