<?xml version="1.0" encoding="UTF-8"?>
<svg id="Layer_1" xmlns="http://www.w3.org/2000/svg" width="144" height="144" version="1.1" viewBox="0 0 144 144">
  <!-- Generator: Adobe Illustrator 30.0.0, SVG Export Plug-In . SVG Version: 2.1.1 Build 123)  -->
  <defs>
    <style>
      .st0 {
        fill: #c7c7c7;
      }
    </style>
  </defs>
  <path class="st0" d="M113.32,46.23l2.02-2.42c2.02-2.56,1.78-6.11-.65-8.16l-6.76-5.49c-2.42-2.05-5.98-1.67-8.02.75l-1.78,2.18c-6.52-3.93-13.92-6.35-21.94-7v-3.07h7.27c2.42,0,4.33-1.91,4.33-4.33s-1.91-4.33-4.33-4.33h-23.07c-2.42,0-4.33,1.91-4.33,4.33s1.91,4.33,4.33,4.33h7.27v3.07c-26.63,2.15-47.55,24.48-47.55,51.64,0,28.68,23.21,51.89,51.89,51.91,28.7,0,51.91-23.21,51.91-51.91,0-11.87-3.96-22.83-10.58-31.5ZM72.01,120.92c-23.83,0-43.22-19.36-43.22-43.22,0-23.83,19.36-43.22,43.22-43.22,23.83,0,43.22,19.39,43.22,43.22,0,23.83-19.39,43.22-43.22,43.22Z"/>
  <path class="st0" d="M94.71,91.92l-11.98-11.98c.16-.73.22-1.45.22-2.23,0-6.06-4.9-10.96-10.96-10.96s-10.96,4.9-10.96,10.96c0,6.06,4.9,10.96,10.96,10.96.75,0,1.51-.08,2.23-.22l11.98,11.98c2.34,2.34,6.17,2.34,8.51,0,2.34-2.34,2.37-6.17,0-8.51Z"/>
</svg>