<?xml version="1.0" encoding="UTF-8"?>
<svg xmlns="http://www.w3.org/2000/svg" width="144" height="144" version="1.1" viewBox="0 0 144 144">
  <!-- Generator: Adobe Illustrator 30.0.0, SVG Export Plug-In . SVG Version: 2.1.1 Build 123)  -->
  <defs>
    <style>
      .st0 {
        fill: #c7c7c7;
      }
    </style>
  </defs>
  <path class="st0" d="M137.5,66.99l-30.48-17.59c-3.89-2.24-8.72.56-8.72,5.03v9.67h-23.26s-25.05-27.46-25.05-27.46H11.67c-4.31,0-7.97,3.38-8.08,7.69-.11,4.47,3.47,8.14,7.91,8.14h31.46s17.81,19.52,17.81,19.52l-17.81,19.52H11.67c-4.31,0-7.97,3.38-8.08,7.69-.11,4.47,3.47,8.14,7.91,8.14h38.45s25.05-27.43,25.05-27.43h23.26v9.67c0,4.47,4.84,7.27,8.72,5.03l30.48-17.59c3.91-2.21,3.91-7.8.03-10.04Z"/>
</svg>