<?xml version="1.0" encoding="UTF-8"?>
<svg id="Layer_1" xmlns="http://www.w3.org/2000/svg" version="1.1" viewBox="0 0 144 144">
  <!-- Generator: Adobe Illustrator 30.1.0, SVG Export Plug-In . SVG Version: 2.1.1 Build 136)  -->
  <defs>
    <style>
      .st0 {
        fill: #c7c7c7;
      }
    </style>
  </defs>
  <polygon class="st0" points="72 136.98 71.81 137.18 72.03 137.28 72.21 137.2 72 136.98"/>
  <path class="st0" d="M119.97,23.42l-43.61-15.18h-.01l-4.37-1.52-4.37,1.52-43.56,15.23-8.69,3.08v52.49c0,9.75,2.85,19.32,8.14,27.51,4.76,7.38,11.36,13.36,19.14,17.4.5-2.91,1.87-5.7,4.11-7.95l3.01-3.01s-.02-.05-.03-.07c-6.25-3.01-11.56-7.62-15.3-13.47-3.96-6.07-6.03-13.16-6.03-20.42v-43.24l43.56-15.27,43.56,15.27v43.24h.02c0,7.22-2.12,14.35-6.03,20.42-3.77,5.79-9.01,10.42-15.24,13.44-.01.03-.03.06-.04.09l3.02,3.02c2.25,2.25,3.61,5.04,4.11,7.95,7.76-4.04,14.39-10.04,19.16-17.45,5.29-8.19,8.14-17.76,8.14-27.51V26.5l-8.69-3.08Z"/>
  <path class="st0" d="M90.18,123.08l-11.33-11.33,11.33-11.33c1.89-1.89,1.89-4.95,0-6.85h0c-1.89-1.89-4.95-1.89-6.85,0l-11.33,11.33-11.33-11.33c-1.89-1.89-4.95-1.89-6.85,0h0c-1.89,1.89-1.89,4.95,0,6.85l11.33,11.33-11.33,11.33c-1.89,1.89-1.89,4.95,0,6.85h0c1.89,1.89,4.95,1.89,6.85,0l11.33-11.33,11.33,11.33c1.89,1.89,4.95,1.89,6.85,0h0c1.89-1.89,1.89-4.95,0-6.85Z"/>
</svg>