<?xml version="1.0" encoding="UTF-8"?>
<svg id="Layer_1" xmlns="http://www.w3.org/2000/svg" width="144" height="144" version="1.1" viewBox="0 0 144 144">
  <!-- Generator: Adobe Illustrator 30.0.0, SVG Export Plug-In . SVG Version: 2.1.1 Build 123)  -->
  <defs>
    <style>
      .st0 {
        fill: #fff;
      }

      .st1 {
        fill: red;
      }
    </style>
  </defs>
  <path class="st0" d="M127.74,84.48h-18.56c1.11-2.59,1.06-5.53-.2-8.11l-24.84-50.75c-1.65-3.37-5.01-5.47-8.76-5.47s-7.11,2.1-8.76,5.47l-24.83,50.75c-1.27,2.59-1.31,5.52-.2,8.11h-25.32c-6.53,0-11.84,5.31-11.84,11.84v15.69c0,6.53,5.31,11.84,11.84,11.84h111.48c6.53,0,11.84-5.31,11.84-11.84v-15.69c0-6.53-5.31-11.84-11.84-11.84Z"/>
  <g>
    <g>
      <path class="st1" d="M81.12,106.13h1.23c-.18-1.56-.36-3.48-.54-5.78-.36,2.63-.59,4.56-.69,5.78Z"/>
      <path class="st1" d="M52.36,106.13h1.23c-.18-1.56-.36-3.48-.54-5.78-.36,2.63-.59,4.56-.69,5.78Z"/>
      <path class="st1" d="M37.11,99.64v3.5c.1,0,.19,0,.26,0,.33,0,.56-.08.68-.24.13-.16.19-.5.19-1.01v-1.13c0-.47-.07-.78-.22-.92-.15-.14-.45-.21-.92-.21Z"/>
      <path class="st1" d="M20.51,99.64v3.06c.4,0,.68-.06.85-.17.16-.11.24-.47.24-1.08v-.75c0-.44-.08-.72-.23-.86-.16-.14-.44-.2-.85-.2Z"/>
      <path class="st1" d="M113.61,99.33c-.19,0-.33.07-.43.22-.1.15-.15.57-.15,1.28v6.42c0,.8.03,1.29.1,1.48.06.19.22.28.45.28s.4-.11.47-.32c.07-.22.1-.73.1-1.54v-6.32c0-.64-.04-1.05-.11-1.23-.07-.18-.22-.27-.44-.27Z"/>
      <path class="st1" d="M127.74,90.87H16.26c-3.01,0-5.45,2.44-5.45,5.45v15.69c0,3.01,2.44,5.45,5.45,5.45h111.48c3.01,0,5.45-2.44,5.45-5.45v-15.69c0-3.01-2.44-5.45-5.45-5.45ZM24.37,104.57c.24.29.39.56.45.81.06.25.09.92.09,2.03v3.63h-3.32v-4.57c0-.74-.06-1.19-.17-1.37-.12-.17-.42-.26-.91-.26v6.2h-3.58v-13.75h2.53c1.69,0,2.83.06,3.43.2.6.13,1.08.46,1.46,1,.38.54.56,1.39.56,2.56,0,1.07-.13,1.79-.4,2.16-.27.37-.79.59-1.57.66.71.18,1.18.41,1.43.7ZM32.5,111.04h-6.2v-13.75h5.96v2.75h-2.39v2.61h2.23v2.62h-2.23v3.02h2.62v2.75ZM41.23,102.34c0,.88-.09,1.52-.27,1.92-.18.4-.51.71-1,.93-.48.22-1.12.32-1.9.32h-.96v5.54h-3.57v-13.75h3.6c.97,0,1.72.08,2.25.23.52.15.92.37,1.18.66.26.29.44.64.54,1.05.09.41.14,1.05.14,1.91v1.2ZM48.01,111.04h-5.75v-13.75h3.58v11h2.17v2.75ZM53.88,111.04l-.19-2.47h-1.28l-.21,2.47h-3.7l1.82-13.75h5.17l2.04,13.75h-3.65ZM66.49,103.28h-3.58v-2.39c0-.7-.04-1.13-.12-1.3-.08-.17-.24-.26-.5-.26-.29,0-.48.1-.56.31-.08.21-.12.66-.12,1.36v6.39c0,.67.04,1.1.12,1.31.08.2.26.31.53.31s.44-.1.52-.31c.08-.2.12-.68.12-1.44v-1.73h3.58v.54c0,1.42-.1,2.43-.3,3.03-.2.6-.65,1.12-1.33,1.57-.69.45-1.54.67-2.54.67s-1.91-.19-2.59-.57c-.68-.38-1.13-.9-1.35-1.57-.22-.67-.33-1.68-.33-3.03v-4.02c0-.99.03-1.73.1-2.23.07-.49.27-.97.61-1.43s.8-.82,1.4-1.08c.6-.26,1.28-.39,2.06-.39,1.05,0,1.92.2,2.61.61.69.41,1.14.92,1.35,1.52.22.61.32,1.55.32,2.84v1.31ZM73.97,111.04h-6.2v-13.75h5.96v2.75h-2.39v2.61h2.23v2.62h-2.23v3.02h2.62v2.75ZM82.64,111.04l-.19-2.47h-1.28l-.21,2.47h-3.7l1.82-13.75h5.17l2.04,13.75h-3.66ZM95.25,103.28h-3.58v-2.39c0-.7-.04-1.13-.12-1.3-.07-.17-.24-.26-.5-.26-.29,0-.48.1-.56.31-.08.21-.12.66-.12,1.36v6.39c0,.67.04,1.1.12,1.31.08.2.26.31.53.31s.44-.1.52-.31c.08-.2.12-.68.12-1.44v-1.73h3.58v.54c0,1.42-.1,2.43-.3,3.03-.2.6-.64,1.12-1.33,1.57-.69.45-1.54.67-2.54.67s-1.91-.19-2.59-.57c-.68-.38-1.13-.9-1.35-1.57-.22-.67-.33-1.68-.33-3.03v-4.02c0-.99.04-1.73.1-2.23.07-.49.27-.97.61-1.43.34-.46.81-.82,1.4-1.08.6-.26,1.28-.39,2.06-.39,1.05,0,1.92.2,2.61.61.69.41,1.14.92,1.35,1.52.22.61.32,1.55.32,2.84v1.31ZM103.73,100.04h-2.12v11h-3.57v-11h-2.12v-2.75h7.81v2.75ZM108.12,111.04h-3.58v-13.75h3.58v13.75ZM117.73,105.34c0,1.38-.03,2.36-.1,2.93-.06.58-.27,1.1-.61,1.58-.34.48-.81.84-1.39,1.1-.58.26-1.26.38-2.04.38-.74,0-1.4-.12-1.98-.36-.59-.24-1.06-.6-1.41-1.08-.36-.48-.57-1-.64-1.57-.07-.57-.1-1.56-.1-2.97v-2.35c0-1.38.03-2.36.1-2.94.06-.57.27-1.1.61-1.57.34-.48.81-.84,1.39-1.1.58-.26,1.26-.38,2.04-.38.74,0,1.4.12,1.98.36.59.24,1.06.6,1.41,1.08.36.48.57,1,.64,1.57.07.57.1,1.56.1,2.97v2.35ZM127.05,111.04h-3.13l-1.86-6.25v6.25h-2.99v-13.75h2.99l2,6.19v-6.19h2.99v13.75Z"/>
    </g>
    <path class="st1" d="M103.24,79.18l-24.84-50.75c-1.23-2.52-4.83-2.52-6.06,0l-24.84,50.75c-1.1,2.24.54,4.86,3.03,4.86h49.67c2.5,0,4.13-2.62,3.03-4.86ZM79.24,75.5h-7.72v-6.62h7.72v6.62ZM78.56,67.33h-6.37l-1.35-24.89h9.07l-1.35,24.89Z"/>
  </g>
</svg>